<svg xmlns="http://www.w3.org/2000/svg" width="450" height="56" viewBox="0 0 450 56" role="img"><title>GitHub</title><rect x="4.5" y=".5" width="444" height="55" rx="8" fill="#17131f" stroke="#342c40"/><g fill="#faf7ff" transform="translate(181.40833333333333 35) scale(0.01 -0.01)"><path transform="translate(0 0)" d="M726 -30Q579 -30 457 21Q335 72 246 169.5Q157 267 108.5 405.5Q60 544 60 720Q60 951 143.5 1119Q227 1287 377 1378Q527 1469 726 1469Q974 1469 1124 1353.5Q1274 1238 1329 1037L1133 999Q1088 1129 988 1206.5Q888 1284 736 1285Q579 1286 475 1215Q371 1144 318.5 1016.5Q266 889 266 720Q265 551 317 424.5Q369 298 474 227Q579 156 736 154Q868 153 959.5 203.5Q1051 254 1103 351Q1155 448 1168 587L875 587L875 745L1373 745Q1375 725 1376 696.5Q1377 668 1377 660Q1377 461 1302 305Q1227 149 1081.5 59.5Q936 -30 726 -30Z"/><path transform="translate(1437 0)" d="M160 1264L160 1458L354 1458L354 1264ZM160 0L160 1080L354 1080L354 0Z"/><path transform="translate(1950.6666666666667 0)" d="M751 0Q651 -20 555.5 -16.5Q460 -13 385 21.5Q310 56 271 131Q238 196 235.5 263.5Q233 331 233 416L233 1380L427 1380L427 426Q427 360 428.5 312.5Q430 265 449 232Q485 168 563.5 158.5Q642 149 751 165ZM20 922L20 1080L751 1080L751 922Z"/><path transform="translate(2784.5 0)" d="M140 0L140 1440L334 1440L334 812L1073 812L1073 1440L1266 1440L1266 0L1073 0L1073 629L334 629L334 0Z"/><path transform="translate(4190.833333333333 0)" d="M549 -29Q440 -29 365 6Q290 41 241.5 97.5Q193 154 166.5 222Q140 290 130 358Q120 426 120 481L120 1080L316 1080L316 544Q316 475 328 406Q340 337 371.5 280Q403 223 458 189Q513 155 599 155Q661 155 713 175.5Q765 196 803.5 239.5Q842 283 863.5 351.5Q885 420 885 515L1008 472Q1008 320 952.5 207.5Q897 95 794 33Q691 -29 549 -29ZM907 0L907 301L885 301L885 1080L1080 1080L1080 0Z"/><path transform="translate(5410.333333333333 0)" d="M642 -30Q488 -30 383.5 45.5Q279 121 225.5 250Q172 379 172 541Q172 704 225.5 832.5Q279 961 383 1035.5Q487 1110 640 1110Q791 1110 900.5 1035.5Q1010 961 1069 832Q1128 703 1128 541Q1128 379 1069 249.5Q1010 120 901 45Q792 -30 642 -30ZM139 0L139 1440L334 1440L334 786L311 786L311 0ZM616 146Q719 146 787 198.5Q855 251 888.5 340.5Q922 430 922 541Q922 651 888.5 740Q855 829 786 881.5Q717 934 610 934Q508 934 442 884Q376 834 343.5 745.5Q311 657 311 541Q311 426 343 336.5Q375 247 442.5 196.5Q510 146 616 146Z"/></g><path d="M260.5916666666667 22 H269.5916666666667 V31 M259.5916666666667 32 L269.5916666666667 22" fill="none" stroke="#c291ff" stroke-width="1.5" stroke-linecap="round" stroke-linejoin="round"/></svg>