<svg xmlns="http://www.w3.org/2000/svg" width="190" height="56" viewBox="0 0 190 56" role="img"><title>@stealthcatbot</title><rect x="4.5" y=".5" width="184" height="55" rx="8" fill="#17131f" stroke="#342c40"/><g fill="#faf7ff" transform="translate(25.016666666666666 33) scale(0.008 -0.008)"><path transform="translate(0 0)" d="M909 -210Q746 -210 609.5 -155.5Q473 -101 372 -2.5Q271 96 215.5 229.5Q160 363 160 520Q160 702 217 845Q274 988 376 1087Q478 1186 614 1238Q750 1290 907 1290Q1097 1290 1240 1230.5Q1383 1171 1477 1069.5Q1571 968 1616 838.5Q1661 709 1657 569Q1650 376 1573.5 274.5Q1497 173 1341 173Q1254 173 1183.5 213Q1113 253 1087 329L1143 326Q1103 251 1032.5 219.5Q962 188 887 188Q789 188 714 230.5Q639 273 596.5 349.5Q554 426 554 528Q554 632 598.5 708.5Q643 785 719 826.5Q795 868 891 868Q956 868 1026 841Q1096 814 1134 762L1094 712L1094 840L1221 840L1219 489Q1219 413 1250 372.5Q1281 332 1345 332Q1398 332 1428 361.5Q1458 391 1472 442.5Q1486 494 1488 562Q1492 717 1444 825Q1396 933 1312.5 1001Q1229 1069 1126.5 1100.5Q1024 1132 919 1132Q777 1132 666 1086.5Q555 1041 479 958.5Q403 876 364.5 765Q326 654 328 524Q331 393 375.5 287Q420 181 498.5 105Q577 29 683.5 -11.5Q790 -52 917 -52Q991 -52 1064.5 -35Q1138 -18 1198 12L1252 -133Q1173 -172 1085.5 -191Q998 -210 909 -210ZM898 347Q971 347 1019.5 389Q1068 431 1068 528Q1068 618 1024.5 664Q981 710 903 710Q812 710 766.5 661.5Q721 613 721 528Q721 442 768 394.5Q815 347 898 347Z"/><path transform="translate(1817.3333333333333 0)" d="M550 -29Q355 -29 231.5 57Q108 143 80 297L278 329Q299 243 374.5 192.5Q450 142 563 142Q667 142 726.5 185Q786 228 786 303Q786 346 766 373Q746 400 682 424Q618 448 488 483Q347 520 265.5 561Q184 602 149 657Q114 712 114 790Q114 886 166.5 958.5Q219 1031 312.5 1070.5Q406 1110 532 1110Q656 1110 752.5 1071Q849 1032 909 960.5Q969 889 981 793L783 757Q771 840 704.5 887.5Q638 935 533 938Q433 942 371 904Q309 866 309 800Q309 762 332 736Q355 710 421 685.5Q487 661 614 629Q753 594 834.5 551.5Q916 509 951 451Q986 393 986 309Q986 151 870 61Q754 -29 550 -29Z"/><path transform="translate(2883.833333333333 0)" d="M751 0Q651 -20 555.5 -16.5Q460 -13 385 21.5Q310 56 271 131Q238 196 235.5 263.5Q233 331 233 416L233 1380L427 1380L427 426Q427 360 428.5 312.5Q430 265 449 232Q485 168 563.5 158.5Q642 149 751 165ZM20 922L20 1080L751 1080L751 922Z"/><path transform="translate(3670.1666666666665 0)" d="M614 -30Q453 -30 333 40.5Q213 111 146.5 237.5Q80 364 80 532Q80 709 145.5 838.5Q211 968 329 1039Q447 1110 604 1110Q768 1110 883.5 1034Q999 958 1056.5 818Q1114 678 1104 486L909 486L909 556Q907 749 833 843Q759 937 611 937Q450 937 368 834.5Q286 732 286 540Q286 356 368 254.5Q450 153 604 153Q707 153 782 200Q857 247 900 334L1088 272Q1025 128 898 49Q771 -30 614 -30ZM222 486L222 639L1006 639L1006 486Z"/><path transform="translate(4837 0)" d="M446 -30Q326 -30 244.5 14.5Q163 59 121.5 132.5Q80 206 80 293Q80 376 110.5 438.5Q141 501 199 543.5Q257 586 340 612Q414 632 507.5 648Q601 664 700 677.5Q799 691 891 704L822 664Q824 800 766 865Q708 930 567 930Q475 930 402.5 888Q330 846 302 751L120 806Q159 947 271 1028.5Q383 1110 568 1110Q714 1110 820.5 1059Q927 1008 975 902Q1000 850 1006 791Q1012 732 1012 667L1012 0L840 0L840 253L877 225Q813 97 706.5 33.5Q600 -30 446 -30ZM478 130Q571 130 638 163Q705 196 746 249Q787 302 800 361Q815 410 817 471Q819 532 819 566L884 540Q792 527 709 515.5Q626 504 556 492Q486 480 431 463Q387 449 351 427.5Q315 406 293.5 373.5Q272 341 272 295Q272 251 293.5 213.5Q315 176 360.5 153Q406 130 478 130Z"/><path transform="translate(5968.833333333333 0)" d="M160 0L160 1470L354 1470L354 0Z"/><path transform="translate(6482.5 0)" d="M751 0Q651 -20 555.5 -16.5Q460 -13 385 21.5Q310 56 271 131Q238 196 235.5 263.5Q233 331 233 416L233 1380L427 1380L427 426Q427 360 428.5 312.5Q430 265 449 232Q485 168 563.5 158.5Q642 149 751 165ZM20 922L20 1080L751 1080L751 922Z"/><path transform="translate(7316.333333333333 0)" d="M903 0L903 536Q903 606 891 674.5Q879 743 847.5 800Q816 857 761 891Q706 925 621 925Q559 925 506.5 904.5Q454 884 416 840.5Q378 797 356.5 729Q335 661 335 565L211 608Q211 760 267 872.5Q323 985 426 1047Q529 1109 671 1109Q779 1109 854.5 1074Q930 1039 978 982.5Q1026 926 1052.5 858Q1079 790 1089.5 722Q1100 654 1100 599L1100 0ZM139 0L139 1440L313 1440L313 654L335 654L335 0Z"/><path transform="translate(8535.833333333332 0)" d="M599 -30Q433 -30 318 44Q203 118 142 246.5Q81 375 80 540Q81 708 143.5 836.5Q206 965 322 1037.5Q438 1110 601 1110Q775 1110 899.5 1024Q1024 938 1065 788L873 732Q840 824 766.5 875.5Q693 927 599 927Q492 927 422.5 877Q353 827 319.5 739.5Q286 652 286 540Q287 366 365.5 259.5Q444 153 599 153Q702 153 768 200.5Q834 248 869 338L1065 289Q1010 134 889.5 52Q769 -30 599 -30Z"/><path transform="translate(9653.499999999998 0)" d="M446 -30Q326 -30 244.5 14.5Q163 59 121.5 132.5Q80 206 80 293Q80 376 110.5 438.5Q141 501 199 543.5Q257 586 340 612Q414 632 507.5 648Q601 664 700 677.5Q799 691 891 704L822 664Q824 800 766 865Q708 930 567 930Q475 930 402.5 888Q330 846 302 751L120 806Q159 947 271 1028.5Q383 1110 568 1110Q714 1110 820.5 1059Q927 1008 975 902Q1000 850 1006 791Q1012 732 1012 667L1012 0L840 0L840 253L877 225Q813 97 706.5 33.5Q600 -30 446 -30ZM478 130Q571 130 638 163Q705 196 746 249Q787 302 800 361Q815 410 817 471Q819 532 819 566L884 540Q792 527 709 515.5Q626 504 556 492Q486 480 431 463Q387 449 351 427.5Q315 406 293.5 373.5Q272 341 272 295Q272 251 293.5 213.5Q315 176 360.5 153Q406 130 478 130Z"/><path transform="translate(10785.333333333332 0)" d="M751 0Q651 -20 555.5 -16.5Q460 -13 385 21.5Q310 56 271 131Q238 196 235.5 263.5Q233 331 233 416L233 1380L427 1380L427 426Q427 360 428.5 312.5Q430 265 449 232Q485 168 563.5 158.5Q642 149 751 165ZM20 922L20 1080L751 1080L751 922Z"/><path transform="translate(11619.166666666666 0)" d="M642 -30Q488 -30 383.5 45.5Q279 121 225.5 250Q172 379 172 541Q172 704 225.5 832.5Q279 961 383 1035.5Q487 1110 640 1110Q791 1110 900.5 1035.5Q1010 961 1069 832Q1128 703 1128 541Q1128 379 1069 249.5Q1010 120 901 45Q792 -30 642 -30ZM139 0L139 1440L334 1440L334 786L311 786L311 0ZM616 146Q719 146 787 198.5Q855 251 888.5 340.5Q922 430 922 541Q922 651 888.5 740Q855 829 786 881.5Q717 934 610 934Q508 934 442 884Q376 834 343.5 745.5Q311 657 311 541Q311 426 343 336.5Q375 247 442.5 196.5Q510 146 616 146Z"/><path transform="translate(12827.166666666666 0)" d="M604 -30Q443 -30 325 43Q207 116 143.5 244.5Q80 373 80 541Q80 710 145 838.5Q210 967 328 1038.5Q446 1110 604 1110Q767 1110 884.5 1037Q1002 964 1066 836Q1130 708 1130 541Q1130 372 1065.5 243.5Q1001 115 883 42.5Q765 -30 604 -30ZM604 153Q766 153 845 261Q924 369 924 541Q924 717 844 822Q764 927 604 927Q495 927 424.5 877.5Q354 828 320 741.5Q286 655 286 541Q286 365 366.5 259Q447 153 604 153Z"/><path transform="translate(14037 0)" d="M751 0Q651 -20 555.5 -16.5Q460 -13 385 21.5Q310 56 271 131Q238 196 235.5 263.5Q233 331 233 416L233 1380L427 1380L427 426Q427 360 428.5 312.5Q430 265 449 232Q485 168 563.5 158.5Q642 149 751 165ZM20 922L20 1080L751 1080L751 922Z"/></g><path d="M156.98333333333335 22 H165.98333333333335 V31 M155.98333333333335 32 L165.98333333333335 22" fill="none" stroke="#c291ff" stroke-width="1.5" stroke-linecap="round" stroke-linejoin="round"/></svg>